<?xml version="1.0"?><svg width="640" height="480" xmlns="http://www.w3.org/2000/svg">
 <metadata id="metadata7">image/svg+xml</metadata>

 <g>
  <title>Layer 1</title>
  <g id="layer1">
   <path d="m178.993393,125.088615c-3.445343,0 -6.169052,2.740921 -6.169052,6.120964l0,161.002304c0,3.380035 2.723709,6.052185 6.169052,6.052185l273.191025,0c3.445343,0 6.239166,-2.67215 6.239166,-6.052185l0,-161.002304c0,-3.380043 -2.793823,-6.120964 -6.239166,-6.120964l-118.464722,0c-0.610809,0.988289 -1.745483,1.650597 -3.014374,1.650597l-32.10672,0c-1.265533,0 -2.332397,-0.666656 -2.944305,-1.650597l-116.660904,0z" id="rect3225" stroke-miterlimit="4" stroke-linejoin="round" stroke-linecap="round" stroke="#000000" fill-rule="evenodd" fill="#ffffff"/>
   <rect ry="2.679709" rx="2.772267" y="138.933671" x="186.95959" height="150.720041" width="257.286307" id="rect3318" stroke-miterlimit="4" stroke-linejoin="round" stroke-linecap="round" stroke="#000000" fill-rule="evenodd" fill="#ffffff"/>
   <path d="m72.027596,174.579224c-12.316139,66.167862 -20.348743,136.947693 -26.391689,168.008759c-9.478619,48.72052 73.513714,89.675781 104.980198,33.371613c23.888306,-42.744232 51.023956,-97.237915 51.023956,-97.237915l-129.612465,-104.142456z" id="path3206" stroke-miterlimit="4" stroke="#000000" fill-rule="evenodd" fill="#ffffff"/>
   <path id="path3258" d="m436.731598,94.032867l74.365295,0l-5.828003,-9.400551c-3.821075,-6.163414 -13.75412,-10.737495 -31.354584,-10.737495c-17.600647,0 -27.53363,4.574081 -31.354706,10.737495l-5.828003,9.400551z" stroke-miterlimit="4" stroke="#000000" fill-rule="evenodd" fill="#ffffff"/>
   <path d="m117.392235,94.032867l74.365227,0l-5.827972,-9.400551c-3.82103,-6.163414 -13.754074,-10.737495 -31.35463,-10.737495c-17.60054,0 -27.533524,4.574081 -31.354622,10.737495l-5.828003,9.400551z" id="path3234" stroke-miterlimit="4" stroke="#000000" fill-rule="evenodd" fill="#ffffff"/>
   <path id="path3229" d="m201.346771,137.761154c-3.812119,-24.165627 -5.571533,-36.248474 -7.331009,-45.166725c-1.75943,-8.91832 -17.301178,-13.521271 -39.440903,-13.521271c-22.139633,0 -37.681404,4.602951 -39.440895,13.521271c-1.759415,8.918251 -3.518906,21.001099 -7.331024,45.166725" stroke-miterlimit="4" stroke="#000000" fill-rule="evenodd" fill="#ffffff"/>
   <path id="path2416" d="m239.761459,195.292694c0,46.076538 -38.073685,83.428986 -85.039902,83.428986c-46.966225,0 -85.039879,-37.352448 -85.039879,-83.428986c0,-46.076599 38.073654,-83.429054 85.039879,-83.429054c46.966217,0 85.039902,37.352455 85.039902,83.429054z" stroke-miterlimit="4" stroke-linejoin="round" stroke-linecap="round" stroke="#000000" fill-rule="evenodd" fill="#ffffff"/>
   <path d="m520.686157,137.761154c-3.812134,-24.165627 -5.571533,-36.248474 -7.331055,-45.166725c-1.75943,-8.91832 -17.301178,-13.521271 -39.440918,-13.521271c-22.139618,0 -37.681366,4.602951 -39.440857,13.521271c-1.759399,8.918251 -3.51886,21.001099 -7.331024,45.166725" id="path3260" stroke-miterlimit="4" stroke="#000000" fill-rule="evenodd" fill="#ffffff"/>
   <path d="m290.198914,276.420288c0,29.234772 -24.157074,52.934265 -53.956345,52.934265c-29.799301,0 -53.95639,-23.699493 -53.95639,-52.934265c0,-29.234802 24.157089,-52.934311 53.95639,-52.934311c29.799271,0 53.956345,23.699509 53.956345,52.934311z" id="path3208" stroke-miterlimit="4" stroke-linejoin="round" stroke-linecap="round" stroke="#000000" fill-rule="evenodd" fill="#ffffff"/>
   <path d="m277.882782,276.420288c0,22.561615 -18.642914,40.85144 -41.640213,40.85144c-22.997253,0 -41.640244,-18.289825 -41.640244,-40.85144c0,-22.561676 18.64299,-40.851456 41.640244,-40.851456c22.997299,0 41.640213,18.28978 41.640213,40.851456z" id="path3212" stroke-miterlimit="4" stroke-linejoin="round" stroke-linecap="round" stroke="#000000" fill-rule="evenodd" fill-opacity="0.518518" fill="#ffffff"/>
   <path id="path3210" d="m272.604492,276.420288c0,19.701721 -16.279785,35.673096 -36.361923,35.673096c-20.082092,0 -36.361893,-15.971375 -36.361893,-35.673096c0,-19.70166 16.2798,-35.673096 36.361893,-35.673096c20.082138,0 36.361923,15.971436 36.361923,35.673096z" stroke-miterlimit="4" stroke-linejoin="round" stroke-linecap="round" stroke="#000000" fill-rule="evenodd" fill-opacity="0.518518" fill="#ffffff"/>
   <path id="path3223" d="m559.12677,174.579224c12.316101,66.167862 20.348694,138.098358 26.391663,168.008759c9.829773,48.653503 -73.513733,89.675781 -104.980255,33.371613c-23.888336,-42.744232 -51.023865,-97.237915 -51.023865,-97.237915l129.612457,-104.142456z" stroke-miterlimit="4" stroke="#000000" fill-rule="evenodd" fill="#ffffff"/>
   <path d="m391.392883,195.292694c0,46.076538 38.0737,83.428986 85.039886,83.428986c46.966278,0 85.039886,-37.352448 85.039886,-83.428986c0,-46.076599 -38.073608,-83.429054 -85.039886,-83.429054c-46.966187,0 -85.039886,37.352455 -85.039886,83.429054z" id="path3221" stroke-miterlimit="4" stroke-linejoin="round" stroke-linecap="round" stroke="#000000" fill-rule="evenodd" fill="#ffffff"/>
   <path id="path3219" d="m458.977142,133.635849c-3.445343,0 -6.239166,2.740936 -6.239166,6.120987l0,32.255539l-32.948334,0c-3.445374,0 -6.169128,2.740799 -6.169067,6.120987l0,34.318726c0,3.380066 2.723755,6.120972 6.169067,6.120972l32.948334,0l0,32.255478c0,3.380051 2.793823,6.120865 6.239166,6.120987l34.981354,0c3.445343,0 6.168976,-2.740936 6.169098,-6.120987l0,-32.255478l32.948334,0c3.445313,0 6.169067,-2.740906 6.169067,-6.120972l0,-34.318726c0,-3.380188 -2.723755,-6.120987 -6.169067,-6.120987l-32.948334,0l0,-32.255539c0,-3.380051 -2.723755,-6.120987 -6.169098,-6.120987l-34.981354,0z" stroke-miterlimit="4" stroke-linejoin="round" stroke-linecap="round" stroke="#000000" fill-rule="evenodd" fill="#ffffff"/>
   <rect id="rect3236" width="26.098442" height="14.672003" x="252.66396" y="196.453703" rx="1.568628" ry="1.568628" stroke-miterlimit="4" stroke-linejoin="round" stroke-linecap="round" stroke="#000000" fill-rule="evenodd" fill="#ffffff"/>
   <path d="m373.186005,203.789658l-19.060669,7.33609c-1.814819,0.698502 -3.51889,-1.53978 -3.51889,-3.452316l0,-7.767532c0,-1.912537 1.704071,-4.150681 3.51889,-3.452194l19.060669,7.335953z" id="rect3238" stroke-miterlimit="4" stroke-linejoin="round" stroke-linecap="round" stroke="#000000" fill-rule="evenodd" fill="#ffffff"/>
   <path id="path3242" d="m335.563171,242.760788c0,9.644287 -7.969269,17.462662 -17.799835,17.462662c-9.830566,0 -17.799713,-7.818375 -17.799713,-17.462662c0,-9.644257 7.969147,-17.462677 17.799713,-17.462677c9.830566,0 17.799835,7.81842 17.799835,17.462677z" stroke-miterlimit="4" stroke-linejoin="round" stroke-linecap="round" stroke="#000000" fill-rule="evenodd" fill="#ffffff"/>
   <path id="path3244" d="m494.906952,156.454956c0,10.00972 -8.271179,18.124222 -18.474182,18.124222c-10.202942,0 -18.474152,-8.114502 -18.474152,-18.124222c0,-10.009705 8.27121,-18.124237 18.474152,-18.124237c10.203003,0 18.474182,8.114532 18.474182,18.124237z" stroke-miterlimit="4" stroke-linejoin="round" stroke-linecap="round" stroke="#000000" fill-rule="evenodd" fill="#ffffff"/>
   <path d="m494.906952,234.417953c0,10.00972 -8.271179,18.124222 -18.474182,18.124222c-10.202942,0 -18.474152,-8.114502 -18.474152,-18.124222c0,-10.00972 8.27121,-18.124237 18.474152,-18.124237c10.203003,0 18.474182,8.114517 18.474182,18.124237z" id="path3246" stroke-miterlimit="4" stroke-linejoin="round" stroke-linecap="round" stroke="#000000" fill-rule="evenodd" fill="#ffffff"/>
   <path d="m497.692719,195.436417c0,-10.00972 8.27121,-18.124222 18.474152,-18.124222c10.203003,0 18.474182,8.114502 18.474182,18.124222c0,10.00972 -8.271179,18.124237 -18.474182,18.124237c-10.202942,0 -18.474152,-8.114517 -18.474152,-18.124237z" id="path3248" stroke-miterlimit="4" stroke-linejoin="round" stroke-linecap="round" stroke="#000000" fill-rule="evenodd" fill="#ffffff"/>
   <path id="path3250" d="m418.224457,195.436417c0,-10.00972 8.271149,-18.124222 18.474152,-18.124222c10.202972,0 18.474152,8.114502 18.474152,18.124222c0,10.00972 -8.271179,18.124237 -18.474152,18.124237c-10.203003,0 -18.474152,-8.114517 -18.474152,-18.124237z" stroke-miterlimit="4" stroke-linejoin="round" stroke-linecap="round" stroke="#000000" fill-rule="evenodd" fill="#ffffff"/>
   <path d="m136.864487,132.5746c-3.445297,0 -6.239136,2.74086 -6.239136,6.120972l0,32.255508l-32.948372,0c-3.44532,0 -6.169067,2.740906 -6.169067,6.120972l0,34.318726c0,3.380051 2.723747,6.120987 6.169067,6.120987l32.948372,0l0,32.255478c0,3.380051 2.793762,6.120972 6.239136,6.120972l34.981369,0c3.445313,0 6.169052,-2.740921 6.169052,-6.120972l0,-32.255478l32.948364,0c3.445313,0 6.169067,-2.740936 6.169067,-6.120987l0,-34.318726c0,-3.380066 -2.723679,-6.120972 -6.169067,-6.120972l-32.948364,0l0,-32.255508c0,-3.380051 -2.72374,-6.120972 -6.169052,-6.120972l-34.981369,0z" id="rect3214" stroke-miterlimit="4" stroke-linejoin="round" stroke-linecap="round" stroke="#000000" fill-rule="evenodd" fill="#ffffff"/>
   <path id="path3289" d="m447.376099,276.420288c0,29.234772 -24.157196,52.934265 -53.95639,52.934265c-29.799286,0 -53.95639,-23.699493 -53.95639,-52.934265c0,-29.234802 24.157104,-52.934311 53.95639,-52.934311c29.799194,0 53.95639,23.699509 53.95639,52.934311z" stroke-miterlimit="4" stroke-linejoin="round" stroke-linecap="round" stroke="#000000" fill-rule="evenodd" fill="#ffffff"/>
   <path id="path3291" d="m435.059937,276.420288c0,22.561615 -18.642975,40.85144 -41.640228,40.85144c-22.997284,0 -41.640228,-18.289825 -41.640228,-40.85144c0,-22.561676 18.642944,-40.851456 41.640228,-40.851456c22.997253,0 41.640228,18.28978 41.640228,40.851456z" stroke-miterlimit="4" stroke-linejoin="round" stroke-linecap="round" stroke="#000000" fill-rule="evenodd" fill-opacity="0.518518" fill="#ffffff"/>
   <path d="m429.781647,276.420288c0,19.701721 -16.279785,35.673096 -36.361938,35.673096c-20.082153,0 -36.361908,-15.971375 -36.361908,-35.673096c0,-19.70166 16.279755,-35.673096 36.361908,-35.673096c20.082153,0 36.361938,15.971436 36.361938,35.673096z" id="path3293" stroke-miterlimit="4" stroke-linejoin="round" stroke-linecap="round" stroke="#000000" fill-rule="evenodd" fill-opacity="0.518518" fill="#ffffff"/>
   <g id="g3289" fill="#3f3f3f">
    <path id="path3273" d="m154.32016,139.068802l-8.487488,7.908813l16.974854,0l-8.487366,-7.908813z" stroke-miterlimit="4" stroke-linejoin="round" stroke-linecap="round" stroke="#000000" fill-rule="evenodd" fill="#ffffff"/>
    <path d="m154.32016,249.394012l-8.487488,-7.908859l16.974854,0l-8.487366,7.908859z" id="path3295" stroke-miterlimit="4" stroke-linejoin="round" stroke-linecap="round" stroke="#000000" fill-rule="evenodd" fill="#ffffff"/>
    <path d="m210.547791,194.231384l-8.061493,-8.326584l0,16.65329l8.061493,-8.326706z" id="path3303" stroke-miterlimit="4" stroke-linejoin="round" stroke-linecap="round" stroke="#000000" fill-rule="evenodd" fill="#ffffff"/>
    <path id="path3305" d="m98.092491,194.231384l8.061462,-8.326584l0,16.65329l-8.061462,-8.326706z" stroke-miterlimit="4" stroke-linejoin="round" stroke-linecap="round" stroke="#000000" fill-rule="evenodd" fill="#ffffff"/>
   </g>
   <rect id="rect3307" width="21.149969" height="20.749345" x="426.123611" y="185.061766" stroke-miterlimit="4" stroke="#000000" fill-rule="evenodd" fill="#ffffff"/>
   <path id="path3309" d="m488.207245,163.797516l-23.549011,0l11.774475,-19.974228l11.774536,19.974228z" stroke-miterlimit="4" stroke="#000000" fill-rule="evenodd" fill="#ffffff"/>
   <path id="path3311" d="m503.498657,195.436523c0,-6.863937 5.671783,-12.428391 12.668213,-12.428391c6.996582,0 12.668396,5.564453 12.668396,12.428391c0,6.863998 -5.671814,12.428268 -12.668396,12.428268c-6.996429,0 -12.668213,-5.56427 -12.668213,-12.428268z" stroke-miterlimit="4" stroke-linejoin="round" stroke-linecap="round" stroke="#000000" fill-rule="evenodd" fill="#ffffff"/>
   <path id="path3313" d="m467.059662,225.40477l19.076416,18.715118m0,-18.715118l-19.076416,18.715118" stroke-miterlimit="4" stroke="#000000" fill-rule="evenodd" fill-opacity="0.75" fill="#ffffff"/>
   <g id="g5204" stroke="#454545" fill="#5a5a5a">
    <path d="m175.227127,181.882675c-0.752106,0.063126 -1.440811,0.438568 -1.892776,1.031616l-7.851547,9.766052c-0.73114,0.932632 -0.73114,2.231018 0,3.163651l7.851547,9.834824c0.498108,0.647461 1.276215,1.029205 2.103088,1.031631l18.226746,0.068771c0.708069,0.005096 1.388641,-0.268646 1.889359,-0.759872c0.500717,-0.491241 0.779678,-1.158981 0.774551,-1.853561l0,-19.32579c0.010818,-1.421036 -1.145615,-2.586182 -2.593811,-2.613449l-18.226761,-0.343872c-0.093369,-0.004837 -0.187027,-0.004837 -0.280396,0z" id="path3322" stroke-miterlimit="4" stroke-linejoin="round" stroke-linecap="round" stroke="#000000" fill-rule="evenodd" fill="#ffffff"/>
    <path id="path3324" d="m133.413223,181.687134c0.751968,0.063126 1.440674,0.438568 1.892776,1.031616l7.851547,9.766052c0.73114,0.932632 0.73114,2.231018 0,3.163651l-7.851547,9.834824c-0.498108,0.647446 -1.276352,1.029205 -2.103073,1.031631l-18.226768,0.068771c-0.708145,0.005096 -1.388626,-0.268646 -1.889488,-0.759872c-0.50058,-0.491241 -0.779617,-1.158981 -0.774414,-1.853577l0,-19.325775c-0.010956,-1.421036 1.145477,-2.586197 2.593811,-2.613449l18.226746,-0.343872c0.093399,-0.004852 0.187042,-0.004852 0.280411,0z" stroke-miterlimit="4" stroke-linejoin="round" stroke-linecap="round" stroke="#000000" fill-rule="evenodd" fill="#ffffff"/>
    <path id="path3332" d="m166.907349,214.742386c-0.064346,-0.737854 -0.447159,-1.413513 -1.051529,-1.856934l-9.954605,-7.702789c-0.95079,-0.7173 -2.274246,-0.7173 -3.224747,0l-10.024704,7.702789c-0.659958,0.488678 -1.049088,1.252075 -1.051544,2.063248l-0.070114,17.881516c-0.005203,0.694672 0.273834,1.362335 0.774429,1.853561c0.500839,0.491226 1.181335,0.764923 1.889496,0.759888l19.698898,0c1.448349,0.01062 2.635986,-1.123901 2.663925,-2.544662l0.350494,-17.881516c0.004944,-0.091614 0.004944,-0.183502 0,-0.275101z" stroke-miterlimit="4" stroke-linejoin="round" stroke-linecap="round" stroke="#000000" fill-rule="evenodd" fill="#ffffff"/>
    <path d="m167.106674,173.720428c-0.064346,0.737869 -0.447174,1.413528 -1.051544,1.856934l-9.954605,7.702805c-0.95076,0.7173 -2.274246,0.7173 -3.224731,0l-10.024719,-7.702805c-0.659958,-0.488678 -1.049072,-1.252045 -1.051544,-2.063248l-0.070099,-17.8815c-0.005203,-0.694748 0.273849,-1.362335 0.774414,-1.853577c0.500854,-0.491226 1.181351,-0.764999 1.889496,-0.759872l19.698929,0c1.448318,-0.01062 2.635956,1.123901 2.663895,2.544678l0.35051,17.8815c0.004944,0.091614 0.004944,0.183487 0,0.275085z" id="path3334" stroke-miterlimit="4" stroke-linejoin="round" stroke-linecap="round" stroke="#000000" fill-rule="evenodd" fill="#ffffff"/>
   </g>
   <path d="m149.475418,88.943253l2.328598,0l0,14.962051l8.380524,0l0,1.9226l-10.709122,0l0,-16.884651" id="text3336" stroke="#000000" fill="#ffffff"/>
   <path d="m478.242371,97.911461c0.499481,0.165909 0.983643,0.520248 1.452454,1.063065c0.476501,0.542816 0.952972,1.289253 1.429443,2.239212l2.363159,4.614166l-2.501526,0l-2.201721,-4.331406c-0.568726,-1.130966 -1.12204,-1.881104 -1.660034,-2.250572c-0.530182,-0.369392 -1.2565,-0.554153 -2.17865,-0.554153l-2.536102,0l0,7.136131l-2.328613,0l0,-16.884651l5.256653,0c1.967316,0 3.43515,0.403374 4.403534,1.210068c0.968292,0.806702 1.452454,2.024361 1.452454,3.652863c0,1.063065 -0.253571,1.945175 -0.760773,2.646362c-0.499573,0.701187 -1.229645,1.187508 -2.190277,1.458916m-5.832977,-7.090942l0,5.993904l2.92804,0c1.122009,0.000076 1.967316,-0.252533 2.536041,-0.757675c0.576416,-0.512711 0.864563,-1.262856 0.864563,-2.250565c0,-0.987617 -0.288147,-1.730309 -0.864563,-2.227928c-0.568726,-0.505135 -1.414032,-0.757668 -2.536041,-0.757736l-2.92804,0" id="text3340" stroke="#000000" fill="#ffffff"/>
   <path d="m253.0298,183.872726l0,0.966461c-0.383347,-0.179855 -0.745102,-0.313919 -1.085144,-0.402298c-0.340027,-0.088272 -0.668442,-0.132446 -0.985214,-0.132446c-0.550079,0 -0.975143,0.10463 -1.275208,0.313919c-0.296677,0.209396 -0.445099,0.50708 -0.445099,0.89299c0,0.32373 0.098343,0.569153 0.295044,0.735977c0.200043,0.163467 0.576797,0.295914 1.13028,0.397339l0.610046,0.12265c0.753479,0.14064 1.308609,0.389267 1.665283,0.745758c0.360077,0.353287 0.540146,0.827469 0.540146,1.422791c0,0.709778 -0.243362,1.247757 -0.730118,1.614075c-0.483459,0.36644 -1.193588,0.549515 -2.130402,0.549515c-0.353394,0 -0.730148,-0.039215 -1.130203,-0.117676c-0.396729,-0.078568 -0.808533,-0.194626 -1.235229,-0.348434l0,-1.020477c0.410065,0.225662 0.811783,0.395859 1.205246,0.510315c0.393356,0.114441 0.78009,0.171661 1.160187,0.171661c0.576767,0 1.021835,-0.111221 1.33522,-0.333527c0.313416,-0.222443 0.470108,-0.539719 0.470108,-0.951843c0,-0.359848 -0.113342,-0.641129 -0.340088,-0.843826c-0.223373,-0.202835 -0.591766,-0.354889 -1.105225,-0.456314l-0.615021,-0.117798c-0.75354,-0.147095 -1.298645,-0.377731 -1.63533,-0.691772c-0.336731,-0.313934 -0.505081,-0.750626 -0.505081,-1.309952c0,-0.647598 0.231659,-1.157761 0.695084,-1.530655c0.466736,-0.372894 1.108566,-0.559341 1.925339,-0.559341c0.350113,0 0.706787,0.031036 1.070175,0.093231c0.363464,0.06218 0.735199,0.155426 1.115204,0.279678m2.025406,-0.240463l4.720856,0l0,0.83403l-3.710663,0l0,2.168579l3.555664,0l0,0.83403l-3.555664,0l0,2.654282l3.800659,0l0,0.834015l-4.810852,0l0,-7.324936m6.481171,0l1.010193,0l0,6.490921l3.635681,0l0,0.834015l-4.645874,0l0,-7.324936m5.70105,0l4.720856,0l0,0.83403l-3.710663,0l0,2.168579l3.555664,0l0,0.83403l-3.555664,0l0,2.654282l3.80069,0l0,0.834015l-4.810883,0l0,-7.324936m12.072205,0.564178l0,1.045059c-0.340027,-0.310699 -0.703491,-0.542938 -1.09021,-0.696625c-0.383392,-0.153809 -0.791809,-0.230637 -1.225159,-0.230637c-0.853577,0 -1.507019,0.256821 -1.960449,0.770218c-0.4534,0.51033 -0.680054,1.249512 -0.680054,2.21759c0,0.96489 0.226654,1.704208 0.680054,2.217606c0.45343,0.5103 1.106873,0.765396 1.960449,0.765396c0.43335,0 0.841766,-0.076843 1.225159,-0.230515c0.386719,-0.153793 0.750183,-0.386047 1.09021,-0.696747l0,1.035248c-0.353394,0.235474 -0.728455,0.412125 -1.125214,0.529785c-0.393433,0.117798 -0.81012,0.176636 -1.250183,0.176636c-1.130219,0 -2.020416,-0.338501 -2.670502,-1.015503c-0.650146,-0.680359 -0.97522,-1.60762 -0.97522,-2.781906c0,-1.177505 0.325073,-2.104752 0.97522,-2.781754c0.650085,-0.680359 1.540283,-1.020477 2.670502,-1.020477c0.446686,0 0.866821,0.058838 1.260193,0.176651c0.396729,0.114426 0.768463,0.287857 1.115204,0.519974m0.535095,-0.564178l6.316162,0l0,0.83403l-2.650482,0l0,6.490906l-1.015167,0l0,-6.490906l-2.650513,0l0,-0.83403" id="text2434" stroke="#000000" fill="#ffffff"/>
   <path d="m349.226288,183.872726l0,0.966461c-0.383453,-0.179855 -0.745209,-0.313919 -1.085236,-0.402298c-0.340118,-0.088272 -0.668457,-0.132446 -0.985229,-0.132446c-0.550079,0 -0.975128,0.10463 -1.275208,0.313919c-0.296692,0.209396 -0.445038,0.50708 -0.445038,0.89299c0,0.32373 0.098328,0.569153 0.294983,0.735977c0.200043,0.163467 0.576782,0.295914 1.130219,0.397339l0.610107,0.12265c0.753479,0.14064 1.308624,0.389267 1.665344,0.745758c0.360046,0.353287 0.54007,0.827469 0.54007,1.422791c0,0.709778 -0.243347,1.247757 -0.730103,1.614075c-0.483459,0.36644 -1.193604,0.549515 -2.130402,0.549515c-0.353394,0 -0.730103,-0.039215 -1.130188,-0.117676c-0.396759,-0.078568 -0.808502,-0.194626 -1.23526,-0.348434l0,-1.020477c0.410095,0.225662 0.811798,0.395859 1.205261,0.510315c0.393341,0.114441 0.78009,0.171661 1.160187,0.171661c0.576752,0 1.021851,-0.111221 1.335236,-0.333527c0.313416,-0.222443 0.470032,-0.539719 0.470032,-0.951843c0,-0.359848 -0.113281,-0.641129 -0.340027,-0.843826c-0.223389,-0.202835 -0.591766,-0.354889 -1.105225,-0.456314l-0.615082,-0.117798c-0.753418,-0.147095 -1.298584,-0.377731 -1.635345,-0.691772c-0.33667,-0.313934 -0.505066,-0.750626 -0.505005,-1.309952c-0.000061,-0.647598 0.231659,-1.157761 0.695099,-1.530655c0.466766,-0.372894 1.108551,-0.559341 1.925323,-0.559341c0.350037,0 0.706787,0.031036 1.070251,0.093231c0.363403,0.06218 0.735138,0.155426 1.115234,0.279678m0.990112,-0.240463l6.316193,0l0,0.83403l-2.650513,0l0,6.490906l-1.015198,0l0,-6.490906l-2.650482,0l0,-0.83403m8.991669,0.976303l-1.3703,3.645325l2.745514,0l-1.375214,-3.645325m-0.570129,-0.976303l1.145172,0l2.84552,7.324936l-1.05014,0l-0.680176,-1.879074l-3.36554,0l-0.680145,1.879074l-1.065247,0l2.850555,-7.324936m8.616547,3.890625c0.216766,0.071991 0.426758,0.225677 0.630157,0.461136c0.206696,0.235489 0.413391,0.559341 0.620117,0.971451l1.025177,2.001724l-1.085205,0l-0.955139,-1.879074c-0.246735,-0.490555 -0.486755,-0.81604 -0.720154,-0.976288c-0.230011,-0.160263 -0.545135,-0.240448 -0.94519,-0.240448l-1.100189,0l0,3.09581l-1.010193,0l0,-7.324936l2.280426,0c0.853485,0 1.490295,0.175034 1.91037,0.524948c0.420074,0.350067 0.630096,0.878235 0.630096,1.584793c0,0.461121 -0.110016,0.843826 -0.330078,1.147934c-0.216736,0.30426 -0.533386,0.515152 -0.950195,0.63295m-2.530426,-3.076202l0,2.600296l1.270233,0c0.486755,0 0.853485,-0.109619 1.100189,-0.328705c0.250031,-0.222443 0.375061,-0.547913 0.375061,-0.976273c0,-0.428513 -0.125031,-0.750763 -0.375061,-0.966614c-0.246704,-0.219101 -0.613434,-0.328705 -1.100189,-0.328705l-1.270233,0m4.335785,-0.814423l6.316162,0l0,0.83403l-2.650482,0l0,6.490906l-1.015198,0l0,-6.490906l-2.650482,0l0,-0.83403" id="text2438" stroke="#000000" fill="#ffffff"/>
   <text xml:space="preserve" x="-145.361618" y="-680.952626" id="text3367" transform="matrix(-3.64584, 0, 0, -1.35416, -254.71, -788.4)" font-family="Arial" stroke="#000000" fill="#ffffff" text-anchor="start" font-weight="normal" font-style="normal" font-size="3.07532px">
    <tspan id="tspan3369" x="-223.68372" y="-815.48474" fill="#ffffff" stroke="#000000">1</tspan>
   </text>
   <text id="text3371" y="-680.952626" x="-142.128978" xml:space="preserve" transform="matrix(-3.64584, 0, 0, -1.35416, -254.71, -788.4)" font-family="Arial" stroke="#000000" fill="#ffffff" text-anchor="start" font-weight="normal" font-style="normal" font-size="3.07532px">
    <tspan y="-815.48474" x="-220.45108" id="tspan3373" fill="#ffffff" stroke="#000000">2</tspan>
   </text>
   <text xml:space="preserve" x="-138.600158" y="-680.991686" id="text3375" transform="matrix(-3.64584, 0, 0, -1.35416, -254.71, -788.4)" font-family="Arial" stroke="#000000" fill="#ffffff" text-anchor="start" font-weight="normal" font-style="normal" font-size="3.07532px">
    <tspan id="tspan3377" x="-216.92226" y="-815.5238" fill="#ffffff" stroke="#000000">3</tspan>
   </text>
   <text id="text3379" y="-680.961656" x="-134.538558" xml:space="preserve" transform="matrix(-3.64584, 0, 0, -1.35416, -254.71, -788.4)" font-family="Arial" stroke="#000000" fill="#ffffff" text-anchor="start" font-weight="normal" font-style="normal" font-size="3.07532px">
    <tspan y="-815.49377" x="-212.86066" id="tspan3381" fill="#ffffff" stroke="#000000">4</tspan>
   </text>
   <rect id="rect3383" width="4.673324" height="5.943261" x="230.178582" y="126.136565" ry="1.568628" stroke-miterlimit="4" stroke="#000000" fill="#ffffff"/>
   <rect ry="1.568628" y="126.136565" x="244.890882" height="5.943261" width="4.673324" id="rect3385" stroke-miterlimit="4" stroke="#000000" fill="#ffffff"/>
   <rect id="rect3387" width="4.673324" height="5.943261" x="258.045463" y="126.136565" ry="1.568628" stroke-miterlimit="4" stroke="#000000" fill="#ffffff"/>
   <rect ry="1.568628" y="126.136565" x="269.469141" height="5.943261" width="4.673324" id="rect3389" stroke-miterlimit="4" stroke="#000000" fill="#ffffff"/>
  </g>
 </g>
</svg>